<?xml version="1.0" encoding="UTF-8" standalone="no"?>
<svg
        xmlns:osb="http://www.openswatchbook.org/uri/2009/osb"
        xmlns:dc="http://purl.org/dc/elements/1.1/"
        xmlns:cc="http://creativecommons.org/ns#"
        xmlns:rdf="http://www.w3.org/1999/02/22-rdf-syntax-ns#"
        xmlns:xlink="http://www.w3.org/1999/xlink"
        xmlns:sodipodi="http://sodipodi.sourceforge.net/DTD/sodipodi-0.dtd"
        xmlns:inkscape="http://www.inkscape.org/namespaces/inkscape"
        xmlns="http://www.w3.org/2000/svg"
        inkscape:version="1.0 (4035a4fb49, 2020-05-01)"
        sodipodi:docname="cvd_logo.svg"
        width="512"
        height="512"
        id="svg2"
        version="1.1">
  <sodipodi:namedview
          inkscape:current-layer="svg2"
          inkscape:window-maximized="1"
          inkscape:window-y="-8"
          inkscape:window-x="2728"
          inkscape:cy="204.77168"
          inkscape:cx="228.17263"
          inkscape:zoom="0.66451972"
          showgrid="false"
          id="namedview898"
          inkscape:window-height="1017"
          inkscape:window-width="2560"
          inkscape:pageshadow="2"
          inkscape:pageopacity="0"
          guidetolerance="10"
          gridtolerance="10"
          objecttolerance="10"
          borderopacity="1"
          bordercolor="#666666"
          pagecolor="#ffffff"/>
  <defs
          id="defs4">
    <linearGradient
            xlink:href="#linearGradient4318"
            id="linearGradient4322"
            x1="2"
            y1="244"
            x2="571"
            y2="244"
            gradientUnits="userSpaceOnUse"/>
    <linearGradient
            id="linearGradient4318"
            osb:paint="solid">
      <stop
              style="stop-color:#000000;stop-opacity:1;"
              offset="0"
              id="stop4320"/>
    </linearGradient>
  </defs>
  <metadata
          id="metadata7">
    <rdf:RDF>
      <cc:Work
              rdf:about="">
        <dc:format>IMAGE/SVG+XML</dc:format>
        <dc:type
                rdf:resource="http://purl.org/dc/dcmitype/StillImage"/>
        <dc:title></dc:title>
      </cc:Work>
    </rdf:RDF>
  </metadata>
  <g
          id="layer1"
          transform="matrix(3.738527,0,0,3.738527,-221.55113,-1240.6239)">
    <g
            style="display:inline"
            id="layer1-1"
            transform="translate(47.079869,334.36346)"/>
    <path
            id="path4512"
            style="color:#000000;display:inline;overflow:visible;visibility:visible;opacity:1;fill:#8cb6f9;fill-opacity:1;fill-rule:nonzero;stroke:none;stroke-width:0.0719473;stroke-linecap:butt;stroke-linejoin:miter;stroke-miterlimit:4;stroke-dashoffset:0;stroke-opacity:1;marker:none;enable-background:accumulate"
            d="m 122.12698,399.40616 c -3.56075,-2.42325 -8.20854,-1.36138 -12.19836,-0.89993 -7.30004,1.22493 -14.905804,5.09921 -18.252577,12.02193 -1.88688,3.6869 -1.193347,8.64176 2.316413,11.11131 5.018007,3.85593 11.686464,3.99827 17.718684,4.65127 3.91187,0.31387 7.83822,0.14694 11.75545,0.0521 1.69007,3.33076 3.38039,6.67715 4.68353,10.16241 3.43706,1.96215 2.42055,-3.94792 2.61768,-5.86908 0.16436,-5.35139 0.35548,-10.79366 1.86747,-15.96658 7.00441,-0.52038 14.75782,2.62214 18.09177,9.05735 2.32382,5.22011 1.77287,11.98505 -2.53298,16.04383 -5.60222,5.42646 -13.78624,6.86314 -21.30549,6.99588 -4.11234,-0.14456 -9.00193,-0.7084 -11.50458,-4.41834 -3.53104,-0.006 0.0491,5.66856 2.54124,5.76986 6.55785,2.74783 13.91333,1.54829 20.64887,0.15134 6.44352,-1.40532 12.94778,-5.27182 15.19374,-11.79465 2.79569,-7.42607 -0.4508,-16.25207 -6.81582,-20.77745 -3.5533,-2.67025 -7.9897,-3.7688 -12.34015,-4.23473 3.13094,-5.32397 6.37937,-10.66484 11.00135,-14.85381 4.14374,-4.49771 9.38343,-7.91785 14.97147,-10.34454 3.02343,-2.51473 -1.97549,-4.05898 -3.58328,-1.7899 -8.20372,4.34915 -15.19911,10.76737 -20.45929,18.39972 -1.5911,2.66857 -4.32226,4.86594 -5.09542,7.909 -1.16556,5.76602 -2.33112,11.53201 -3.4967,17.29801 -2.73587,-5.1568 -5.47174,-10.3136 -8.20761,-15.4704 -3.758,1.00175 0.81846,5.69122 1.30407,8.10319 0.76285,1.48907 2.06099,3.2794 -0.63054,2.7655 -7.12652,0.26279 -14.44197,0.0404 -21.296524,-2.09102 -3.126633,-1.05951 -7.143406,-3.76525 -5.920293,-7.60326 2.133673,-6.20389 8.375717,-9.95275 14.329357,-11.86985 4.52586,-1.24098 9.59664,-2.33164 14.08237,-0.40295 1.23502,0.15434 1.33455,-1.52044 0.51615,-2.10621 z"/>
    <path
            id="path4512-7"
            style="color:#000000;display:inline;overflow:visible;visibility:visible;opacity:1;fill:#085eeb;fill-opacity:1;fill-rule:nonzero;stroke:none;stroke-width:0.0719473;stroke-linecap:butt;stroke-linejoin:miter;stroke-miterlimit:4;stroke-dashoffset:0;stroke-opacity:1;marker:none;enable-background:accumulate"
            d="m 121.79798,395.66754 c -2.64859,-2.5105 -6.77015,-1.88548 -10.13308,-1.68387 -7.45278,1.07873 -15.255757,4.13323 -19.702484,10.5097 -2.70592,3.92097 -2.87724,10.02511 1.181294,13.11451 6.45632,4.481 14.71151,4.31118 22.23803,4.7755 3.6567,0.18156 8.32284,-1.30137 8.99544,3.67628 1.16942,2.18509 1.94463,4.64513 3.4038,6.62648 4.00876,0.38049 1.70287,-5.68274 2.48794,-8.27456 0.14748,-4.45554 0.60969,-8.97043 2.30891,-13.13374 4.45827,-0.0573 9.05065,0.61729 12.78883,3.23822 6.21412,4.0706 8.23285,13.53574 3.64331,19.52854 -5.56477,6.11194 -14.16899,8.3904 -22.17497,8.69744 -4.20544,-0.048 -8.90011,-0.7584 -11.70788,-4.23798 -3.96686,-0.98091 -1.0327,5.0383 1.51239,5.21942 4.45991,2.4362 9.83673,2.4023 14.76677,1.84027 6.43921,-0.85587 13.25854,-2.63395 18.02326,-7.29936 7.50208,-7.33299 5.72903,-21.17656 -3.05401,-26.72617 -3.63078,-2.5628 -8.12337,-3.09877 -12.38379,-3.79513 3.58769,-7.70735 9.0076,-14.57942 15.94272,-19.54161 3.20248,-2.74695 7.24029,-4.24012 10.66797,-6.6106 1.16123,-4.58792 -4.59344,-1.54531 -6.34385,-0.0217 -12.74069,7.19037 -22.8582,19.5963 -25.65734,34.12697 -0.59804,3.53711 -0.77701,7.13109 -0.93783,10.71031 -2.62468,-5.85303 -5.34129,-11.66962 -8.29214,-17.36559 -3.76425,-2.66911 -1.63025,3.95557 -0.45441,5.48564 0.66285,2.17887 4.127,5.82895 -0.29856,4.881 -7.89201,0.25523 -16.23776,0.21067 -23.463324,-3.37934 -3.76842,-2.13189 -3.18422,-7.48366 -0.791486,-10.44028 3.972806,-5.2837 10.70618,-7.41238 16.90963,-8.78466 3.27432,-0.56711 6.72032,-0.42654 9.81564,0.71877 0.96302,-0.0633 1.24811,-1.16989 0.70923,-1.85461"/>
    <g
            transform="matrix(1.1885136,0,0,1.0834372,327.69368,-315.50341)"
            style="font-style:oblique;font-variant:normal;font-weight:bold;font-stretch:normal;font-size:53px;line-height:125%;font-family:'Cordia New';-inkscape-font-specification:'Cordia New Bold Oblique';text-align:start;letter-spacing:0px;word-spacing:0px;writing-mode:lr-tb;text-anchor:start;fill:#000000;fill-opacity:1;stroke:none"
            id="flowRoot3085"/>
    <g
            style="font-style:normal;font-weight:normal;font-size:40px;line-height:125%;font-family:Sans;letter-spacing:0px;word-spacing:0px;fill:#000000;fill-opacity:1;stroke:none"
            id="flowRoot3093"
            transform="translate(47.079869,334.36346)"/>
    <path
            style="opacity:1;fill:#fccd01;fill-opacity:1;stroke:#000000;stroke-width:0.249945;stroke-miterlimit:4;stroke-dasharray:none;stroke-opacity:1"
            id="path69"
            d="m 163.08203,373.90078 -5.4176,-2.89182 -5.45353,2.82347 1.07615,-6.04606 -4.37052,-4.31411 6.0827,-0.84486 2.7524,-5.48974 2.68317,5.52391 6.07159,0.92127 -4.42441,4.25882 z"/>
    <path
            d="m 185.01184,394.98519 -5.4176,-2.89182 -5.45353,2.82348 1.07615,-6.04607 -4.37052,-4.31411 6.0827,-0.84486 2.7524,-5.48974 2.68316,5.52391 6.0716,0.92127 -4.42441,4.25882 z"
            id="path69-0"
            style="opacity:1;fill:#fccd01;fill-opacity:1;stroke:#000000;stroke-width:0.249945;stroke-miterlimit:4;stroke-dasharray:none;stroke-opacity:1"/>
    <path
            d="m 192.52047,421.55565 -5.41759,-2.89181 -5.45353,2.82347 1.07615,-6.04606 -4.37052,-4.31412 6.0827,-0.84485 2.7524,-5.48974 2.68316,5.52391 6.0716,0.92126 -4.42442,4.25883 z"
            id="path69-4"
            style="opacity:1;fill:#fccd01;fill-opacity:1;stroke:#000000;stroke-width:0.249945;stroke-miterlimit:4;stroke-dasharray:none;stroke-opacity:1"/>
    <path
            d="m 184.53492,449.82674 -5.41759,-2.89182 -5.45353,2.82348 1.07615,-6.04606 -4.37052,-4.31412 6.0827,-0.84485 2.7524,-5.48975 2.68316,5.52392 6.0716,0.92126 -4.42442,4.25882 z"
            id="path69-5"
            style="opacity:1;fill:#fccd01;fill-opacity:1;stroke:#000000;stroke-width:0.249945;stroke-miterlimit:4;stroke-dasharray:none;stroke-opacity:1"/>
    <path
            d="m 132.36007,367.36998 -5.4176,-2.89181 -5.45352,2.82347 1.07615,-6.04606 -4.37052,-4.31411 6.0827,-0.84486 2.7524,-5.48974 2.68316,5.52391 6.07159,0.92127 -4.42441,4.25882 z"
            id="path69-8"
            style="opacity:1;fill:#fccd01;fill-opacity:1;stroke:#000000;stroke-width:0.249945;stroke-miterlimit:4;stroke-dasharray:none;stroke-opacity:1"/>
    <path
            d="m 103.33949,374.49883 -5.417599,-2.89182 -5.45353,2.82348 1.076151,-6.04607 -4.370517,-4.31411 6.082697,-0.84486 2.752402,-5.48974 2.683166,5.52391 6.07159,0.92127 -4.42441,4.25882 z"
            id="path69-3"
            style="opacity:1;fill:#fccd01;fill-opacity:1;stroke:#000000;stroke-width:0.249945;stroke-miterlimit:4;stroke-dasharray:none;stroke-opacity:1"/>
    <path
            d="m 81.804242,394.3113 -5.417599,-2.89182 -5.453529,2.82348 1.07615,-6.04607 -4.370516,-4.31411 6.082696,-0.84486 2.752402,-5.48974 2.683163,5.52391 6.071594,0.92127 -4.424411,4.25882 z"
            id="path69-48"
            style="opacity:1;fill:#fccd01;fill-opacity:1;stroke:#000000;stroke-width:0.249945;stroke-miterlimit:4;stroke-dasharray:none;stroke-opacity:1"/>
    <path
            d="m 73.695111,422.44075 -5.417599,-2.89181 -5.453529,2.82347 1.07615,-6.04606 -4.370516,-4.31411 6.082696,-0.84486 2.752402,-5.48974 2.683163,5.52391 6.071594,0.92127 -4.424411,4.25882 z"
            id="path69-31"
            style="opacity:1;fill:#fccd01;fill-opacity:1;stroke:#000000;stroke-width:0.249945;stroke-miterlimit:4;stroke-dasharray:none;stroke-opacity:1"/>
    <path
            d="m 81.833943,450.09499 -5.417599,-2.89182 -5.453529,2.82348 1.07615,-6.04607 -4.370516,-4.31411 6.082696,-0.84486 2.752402,-5.48974 2.683163,5.52392 6.071594,0.92126 -4.42441,4.25882 z"
            id="path69-7"
            style="opacity:1;fill:#fccd01;fill-opacity:1;stroke:#000000;stroke-width:0.249945;stroke-miterlimit:4;stroke-dasharray:none;stroke-opacity:1"/>
  </g>
</svg>
