<?xml version="1.0" encoding="UTF-8" standalone="no"?>
<svg
        xmlns:dc="http://purl.org/dc/elements/1.1/"
        xmlns:cc="http://creativecommons.org/ns#"
        xmlns:rdf="http://www.w3.org/1999/02/22-rdf-syntax-ns#"
        xmlns:sodipodi="http://sodipodi.sourceforge.net/DTD/sodipodi-0.dtd"
        xmlns:inkscape="http://www.inkscape.org/namespaces/inkscape"
        xmlns="http://www.w3.org/2000/svg"
        id="svg4136"
        version="1.1"
        inkscape:version="1.0 (4035a4fb49, 2020-05-01)"
        width="1000"
        height="1000"
        viewBox="0 0 999.99999 1000"
        sodipodi:docname="logo.svg">
  <metadata
          id="metadata4142">
    <rdf:RDF>
      <cc:Work
              rdf:about="">
        <dc:format>image/svg+xml</dc:format>
        <dc:type
                rdf:resource="http://purl.org/dc/dcmitype/StillImage"/>
        <dc:title></dc:title>
      </cc:Work>
    </rdf:RDF>
  </metadata>
  <defs
          id="defs4140"/>
  <sodipodi:namedview
          fit-margin-bottom="20"
          fit-margin-right="20"
          fit-margin-left="20"
          fit-margin-top="20"
          lock-margins="false"
          pagecolor="#ffffff"
          bordercolor="#666666"
          borderopacity="1"
          objecttolerance="10"
          gridtolerance="10"
          guidetolerance="10"
          inkscape:pageopacity="0"
          inkscape:pageshadow="2"
          inkscape:window-width="1366"
          inkscape:window-height="1735"
          id="namedview4138"
          showgrid="false"
          inkscape:zoom="0.7124298"
          inkscape:cx="179.60285"
          inkscape:cy="485.95547"
          inkscape:window-x="1360"
          inkscape:window-y="0"
          inkscape:window-maximized="0"
          inkscape:current-layer="svg4136"
          inkscape:document-rotation="0"
          inkscape:snap-global="false"/>
  <path
          id="path4148"
          style="fill:#d32f2f;fill-opacity:0.25"
          d="M 520.726,29.775836 C 418.44945,27.335963 319.77564,92.721384 281.05252,187.08692 c -22.6003,55.03335 -23.38911,118.37989 -6.91493,174.80771 -41.40685,-16.65677 -65.76635,52.48785 -19.54831,59.39878 22.27055,26.50276 37.49913,68.85262 71.72726,89.02793 25.40675,21.78151 4.20541,65.98683 11.23449,96.95366 -0.32564,106.79219 -5.89253,213.93555 -2.1054,320.5027 1.29995,42.53723 50.33876,42.66195 81.52542,41.14676 76.42629,-0.10735 153.0302,3.42545 229.34281,-0.46889 35.94733,-2.07378 49.60572,-39.87412 43.8939,-70.80859 -0.65272,-131.45153 -0.74604,-263.01731 -1.44979,-394.39576 -29.17086,-34.71503 32.16639,-48.85271 41.05592,-81.03203 C 798.16904,321.07015 778.46804,171.39298 684.62566,92.720748 639.68715,52.403595 580.63593,31.528138 520.726,29.775836 Z m -0.0703,10.429688 c 108.31923,-1.195783 210.47218,80.280286 233.47517,186.175406 24.12736,95.20455 -15.47834,202.52737 -97.63894,257.0936 -80.50207,59.20764 -197.87516,58.99882 -278.89367,0.8993 C 301.56222,433.59127 261.2503,337.45372 275.17992,247.44455 287.76491,150.81303 365.724,68.19817 460.28264,46.275837 c 19.47745,-5.585848 40.24224,-5.584011 60.37306,-6.070313 z m -3.13478,217.031246 c -65.94401,13.15574 12.08375,94.04897 27.88013,28.91156 -0.26498,-14.55484 -13.14497,-28.4348 -27.88013,-28.91156 z m 207.02344,1.94922 c -9.36936,25.39825 -1.83549,64.53672 -16.36333,93.06553 -21.57082,65.92887 -81.87656,115.11054 -148.99214,128.94814 -59.52732,13.58761 -122.19381,-3.76974 -170.84084,-39.05395 -2.56525,20.90812 48.32795,36.17146 70.87293,45.12593 98.51906,29.16495 213.10033,-24.30929 252.54303,-119.54344 12.91167,-32.77859 25.24554,-76.19908 12.78035,-108.54221 z m -204.56055,6.20117 c 8.90418,10.8643 -28.99162,48.17465 -17.38779,10.21106 3.71696,-5.76317 10.59175,-9.67706 17.38779,-10.21106 z m 11.42383,9.68359 c 23.35327,20.26067 -40.72323,40.75474 -9.53858,11.93612 3.68606,-3.32118 3.9261,-10.64857 9.53858,-11.93612 z m 109.58984,63.51953 c -23.25895,33.80297 -57.97667,65.32035 -99.48864,76.58676 -47.96189,16.46291 42.83609,2.29748 50.96191,-16.34618 17.3911,-14.76672 55.37481,-34.01345 48.52673,-60.24058 z m 52.77149,9.67188 c -15.74903,24.65199 -28.0658,55.1619 -53.7959,74.35403 -40.19941,30.47203 -91.22641,47.78135 -141.72716,44.18815 -33.38602,6.80106 42.11785,10.50792 53.65781,4.97124 37.37051,-0.82524 71.61985,-25.56189 100.71292,-47.68836 20.95173,-15.08697 46.81059,-53.96346 41.15233,-75.82506 z m -44.14844,5.89062 c -18.51073,33.72487 -52.66798,57.88935 -88.01525,72.11067 -17.95546,0.43155 -60.46107,14.74891 -18.10176,10.50943 36.42307,0.71684 68.84264,-29.25629 96.23569,-51.22221 6.90076,-6.73974 22.49754,-23.62306 9.88132,-31.39789 z m -392.16406,14.89258 c 51.16138,-0.27692 -2.07064,80.4783 -18.7311,25.3686 -2.69173,-11.65577 5.76024,-26.08892 18.7311,-25.3686 z m 403.91797,9.36133 c -15.66942,9.32748 13.69737,10.61739 0,0 z m -398.09571,1.16992 c -3.97228,9.99183 -27.42311,26.7443 0.002,22.51902 8.60291,-3.99882 11.92229,-20.73304 -0.002,-22.51902 z m 385.15625,12.63281 c -17.97009,18.8577 -58.15671,31.70657 -67.78711,50.63477 21.2552,-11.78679 69.33316,-25.34228 67.78711,-50.63477 z m -358.1289,4.11524 c 10.08867,32.79194 41.27719,56.97978 59.26881,83.27089 -27.16826,11.74576 -52.85172,-38.96989 -64.53948,-63.45385 -5.0998,-6.13479 -1.53211,-16.6924 5.27067,-19.81704 z m -15.08399,23.19141 c 15.46232,31.32255 38.36061,60.74549 69.71094,78.92883 21.03909,16.54603 72.31842,40.59396 64.67567,65.20981 -25.32671,-25.40683 -55.87873,-46.58381 -85.99564,-67.35482 -19.58129,-17.64272 -57.02352,-51.02651 -48.39097,-76.78382 z m 288.90039,22.45117 c -16.5241,8.7484 15.18805,7.148 0,0 z m 109.36719,48.11914 c 13.98898,28.20522 0.87568,64.78782 5.2955,96.31238 -0.93783,114.99559 2.54108,230.15266 -1.49848,345.04621 -11.89719,39.48585 -61.89297,25.65514 -93.12654,28.17161 -69.75494,-1.04466 -139.68203,0.78935 -209.35472,-2.78047 -43.05757,-10.53434 -29.44583,-64.77684 -31.44682,-97.79336 2.59343,-19.95967 -3.10184,-79.9857 13.1191,-76.04041 -13.59143,43.78427 27.29888,62.30629 64.35176,53.90386 68.87739,-0.18701 137.9158,1.72672 206.68755,0.69978 49.82838,-2.65743 28.14439,-67.58494 31.63749,-100.31341 -1.53052,-62.13983 0.24749,-124.54731 -0.80553,-186.51847 -11.0258,-13.40231 -40.9616,-19.01825 -13.3222,-37.25406 7.65703,-9.53745 17.2651,-18.29728 28.46289,-23.43366 z m -204.95312,51.32226 c 53.73541,0.98881 107.65341,-0.95187 161.27362,2.16211 39.77162,5.00095 -5.89663,18.06229 -6.79843,30.42056 10.94729,-0.51391 37.33427,-24.69235 25.20651,1.32424 -27.01637,25.56199 -43.39788,-18.10667 -75.27584,-6.67203 -38.40886,0.0932 -76.91097,-0.45331 -115.23789,2.24559 12.84049,13.60294 67.48676,2.08283 96.1409,6.91835 35.93624,-6.92553 76.51552,7.23676 63.59152,51.59923 0.16693,51.92661 2.29671,103.84957 1.0332,155.77344 -23.63755,31.70373 -71.42019,8.98713 -105.43794,18.29829 -33.11684,-1.18113 -66.26262,-1.57653 -99.41362,-1.17134 -19.67552,-22.634 -3.8755,-61.24354 -10.77504,-89.97088 2.47322,-41.28913 -3.7077,-83.45759 3.52721,-124.18368 10.8499,16.87073 1.12456,66.47315 6.39887,95.51667 -4.00817,16.09766 6.69944,74.32169 6.59096,28.59906 -1.09159,-47.68674 -4.68161,-96.76353 1.32841,-143.61065 18.13951,-1.89063 23.27952,-22.88411 3.27331,-14.20628 -23.41872,-21.23461 36.94016,-9.84274 44.57425,-13.04268 z m -93.96485,4.57227 c 21.26402,5.3593 -4.97328,28.5907 25.3294,24.94944 33.61091,-3.34143 -19.33529,17.06091 -5.01792,38.75626 -1.70355,61.21929 0.75494,122.52869 0.84355,183.65491 10.31611,36.01047 56.79781,7.79884 86.06261,17.78812 44.19179,0.21721 89.75989,-0.16408 132.944,-2.70227 -23.49456,19.54866 -71.64773,1.06827 -104.58469,6.54133 -32.79744,1.79975 -73.08907,-3.94159 -101.48904,5.145 64.87158,1.70499 129.99784,-0.0523 194.85952,4.17611 24.04482,-6.55734 28.45774,10.67005 1.04498,5.36883 -75.62082,-2.86213 -151.71127,1.92878 -227.05511,-3.91907 -22.56651,-28.24074 -11.21904,-70.35296 -12.52937,-104.53399 2.87127,-56.1982 -0.1434,-112.67565 4.61649,-168.73613 l 1.98748,-5.0561 2.98812,-1.43247 z m 72.45117,23.53711 c -11.02408,33.93111 -5.46769,77.1213 -8.50538,114.58025 3.45147,21.24462 -8.80922,84.84834 5.20052,82.55593 9.47421,-23.30031 -16.48083,-83.43634 21.13784,-76.29128 16.00531,-6.45891 44.88553,0.64072 28.72716,-17.54056 -0.63763,-26.90337 18.91658,-78.68626 -28.12635,-64.6992 -30.29192,5.22205 -7.14642,-27.19948 -18.43379,-38.60514 z m -15.48632,0.42187 c -13.15967,30.28785 -4.95735,69.77315 -6.93291,103.74485 1.31662,35.72315 -1.53434,71.53766 0.10478,107.18875 11.17768,-19.41522 2.69279,-60.4029 5.96047,-88.30911 -0.4392,-40.0267 3.06474,-80.05567 3.32592,-119.98136 z m 214.63476,12.66407 c 4.13746,33.44603 0.27611,73.20763 1.73787,108.9149 -1.89976,33.09829 3.35169,77.23376 -1.01283,103.5848 -41.77661,-25.61741 27.67159,27.67651 -10.12967,32.63196 -9.64007,-18.21182 -31.18059,-23.4912 -10.10188,-43.34006 2.10417,-64.65046 -2.77153,-129.43722 1.8444,-193.94981 9.62109,24.07975 2.27599,71.28612 5.05187,104.26456 -2.7227,15.59278 4.50815,72.69237 5.83438,26.49222 1.62132,-45.81938 -3.53567,-92.74031 4.77603,-137.76288 z m -196.35156,28.36718 c 7.33123,18.37643 13.87418,56.58214 -1.03176,71.47893 -7.99586,-18.21983 -1.29747,-51.03696 1.03176,-71.47893 z m 34.86914,3.43555 c 2.49229,16.83652 8.1408,53.50885 0.51986,66.42779 -15.49819,-3.89893 -5.12764,-55.98884 -0.51986,-66.42779 z m -15.58984,1.88867 c 3.4803,11.3971 10.64256,66.81764 -7.5353,62.62271 4.11107,-19.50599 -3.45605,-47.49647 7.5353,-62.62271 z m 168.78125,137 c -15.7298,17.26708 15.10195,15.74596 0,0 z M 403.45452,871.61958 c -57.85643,5.43739 -26.20221,96.49759 22.12012,61.27848 30.37329,-21.52471 14.17831,-63.94418 -22.12012,-61.27848 z m 213.32421,2.91797 c -48.32278,-2.81286 -44.1755,77.40861 3.5111,69.08955 44.83704,-2.98232 38.86357,-70.26494 -3.5111,-69.08955 z m -207.86523,6.50586 c 33.74925,-8.80912 18.70373,61.48672 12.18878,19.74471 -16.7728,-29.88208 -49.60764,15.64366 -16.89206,27.19195 -31.0502,11.20661 -32.92011,-54.58366 4.70328,-46.93666 z m 207.83008,1.82812 c 35.00752,-10.50671 23.43799,70.33583 16.33852,22.6763 -22.94381,-34.56095 -40.26183,14.1812 -27.32512,27.23714 -26.05436,-10.65275 -17.73977,-51.34621 10.9866,-49.91344 z m -211.70313,15.75196 c 24.38626,9.0979 -12.06014,28.95035 -5.94946,2.11018 l 4.67798,-2.08284 1.27148,-0.0273 z m 211.17188,2.6582 c 29.14055,17.27995 -27.83355,18.75749 0,0 z"/>
</svg>
