<?xml version="1.0" standalone="no"?>
<!DOCTYPE svg PUBLIC "-//W3C//DTD SVG 20010904//EN"
        "http://www.w3.org/TR/2001/REC-SVG-20010904/DTD/svg10.dtd">
<svg version="1.0" xmlns="http://www.w3.org/2000/svg"
     width="700.000000pt" height="700.000000pt" viewBox="0 0 700.000000 700.000000"
     preserveAspectRatio="xMidYMid meet">
    <metadata>
        Created by potrace 1.11, written by Peter Selinger 2001-2013
    </metadata>
    <g transform="translate(0.000000,700.000000) scale(0.100000,-0.100000)"
       fill="#000000" stroke="none">
        <path d="M3365 6941 c-178 -53 -312 -202 -339 -376 -2 -16 -5 -87 -5 -157 l-1
-127 -42 -11 c-174 -43 -418 -148 -550 -237 -163 -109 -335 -272 -443 -417
-57 -78 -157 -236 -149 -236 3 0 -3 -12 -14 -27 -46 -68 -128 -287 -172 -463
-25 -103 -33 -140 -45 -230 -24 -174 -28 -329 -10 -440 22 -135 24 -149 30
-205 3 -27 8 -66 10 -85 3 -19 7 -60 10 -90 3 -30 7 -77 11 -105 3 -27 7 -165
9 -305 3 -274 -7 -406 -44 -551 -47 -189 -115 -271 -361 -439 -230 -157 -306
-244 -345 -391 -17 -62 -19 -146 -6 -182 15 -40 147 -162 307 -286 74 -58 270
-178 394 -243 284 -147 696 -287 1015 -342 17 -3 41 -8 55 -11 45 -9 84 -15
125 -20 22 -3 51 -7 65 -10 14 -3 51 -7 83 -10 32 -4 67 -8 78 -10 129 -25
690 -25 924 -1 91 10 163 18 190 22 85 13 266 45 305 54 25 6 54 12 65 14 28
6 157 38 175 44 8 3 22 6 30 8 99 20 444 151 610 232 129 63 411 230 440 262
3 3 37 30 75 60 129 100 231 198 246 237 23 62 3 191 -46 287 -48 94 -123 163
-334 307 -270 183 -333 293 -371 649 -10 94 -9 454 1 580 10 126 19 219 24
250 2 14 6 45 9 70 3 25 14 105 26 178 19 125 22 293 5 391 -2 14 -7 51 -10
81 -18 147 -80 378 -146 538 -34 84 -145 295 -171 327 -4 5 -32 43 -62 83
-229 314 -559 540 -952 652 l-82 23 -4 156 c-4 131 -9 165 -27 214 -49 125
-161 234 -288 279 -80 28 -218 32 -298 9z m1782 -1897 c7 -10 13 -32 13 -50 0
-41 -18 -56 -205 -159 -164 -91 -201 -114 -275 -172 -291 -224 -426 -365 -595
-619 -81 -123 -184 -309 -175 -317 3 -3 23 -8 45 -11 215 -33 358 -72 455
-124 287 -155 446 -436 435 -767 -4 -125 -9 -155 -37 -240 -70 -209 -232 -378
-469 -488 -306 -141 -788 -201 -1064 -132 -86 22 -242 89 -273 118 -32 30 -72
110 -72 144 1 73 54 79 126 14 142 -129 360 -178 659 -149 144 14 404 74 430
99 5 5 15 9 22 9 19 0 187 80 191 91 2 5 8 9 14 9 18 0 130 85 194 148 201
196 213 559 26 812 -110 149 -312 258 -529 285 -26 3 -87 8 -135 11 l-88 4
-13 -32 c-14 -34 -57 -187 -62 -223 -2 -11 -6 -29 -8 -40 -3 -11 -8 -56 -12
-100 -4 -44 -9 -98 -11 -120 -3 -22 -6 -126 -8 -232 -3 -205 -9 -234 -59 -252
-52 -20 -59 -13 -139 149 -42 85 -77 164 -78 175 -1 32 -43 98 -78 121 -40 28
-94 35 -252 33 -113 -1 -215 3 -400 16 -98 8 -193 17 -215 21 -11 2 -48 9 -82
14 -34 6 -74 15 -88 20 -14 5 -40 12 -58 16 -42 7 -200 77 -259 115 -126 81
-180 197 -174 369 5 145 59 254 194 388 188 189 396 287 775 367 15 3 89 8
165 11 110 5 151 3 202 -10 123 -31 195 -99 152 -142 -17 -17 -23 -17 -148 10
-81 18 -212 23 -294 12 -133 -18 -399 -100 -515 -158 -222 -112 -383 -281
-411 -432 -30 -160 21 -274 149 -335 128 -61 296 -107 457 -125 30 -4 71 -9
90 -12 63 -11 604 -12 617 -2 18 15 8 44 -66 193 -71 139 -95 216 -89 277 4
38 24 46 67 27 25 -11 48 -51 150 -259 66 -135 133 -274 149 -310 16 -36 44
-96 62 -135 18 -38 36 -81 41 -94 5 -13 11 -22 13 -20 2 2 7 62 11 134 4 71 8
136 10 145 2 8 6 49 10 90 25 276 160 633 340 905 193 290 434 528 727 721 73
48 151 99 173 114 127 86 241 117 272 74z"/>
        <path d="M2881 662 c-23 -4 -23 -6 -17 -64 19 -164 99 -307 231 -413 76 -61
121 -85 222 -121 67 -23 240 -28 321 -9 270 64 468 279 497 543 6 56 5 62 -12
63 -50 3 -1221 4 -1242 1z"/>
    </g>
</svg>
