<?xml version="1.0" encoding="UTF-8" standalone="no"?>
<svg
		xmlns:dc="http://purl.org/dc/elements/1.1/"
		xmlns:cc="http://creativecommons.org/ns#"
		xmlns:rdf="http://www.w3.org/1999/02/22-rdf-syntax-ns#"
		xmlns:sodipodi="http://sodipodi.sourceforge.net/DTD/sodipodi-0.dtd"
		xmlns:inkscape="http://www.inkscape.org/namespaces/inkscape"
		xmlns="http://www.w3.org/2000/svg"
		inkscape:version="1.0 (4035a4fb49, 2020-05-01)"
		height="443.71143"
		width="488.81088"
		sodipodi:docname="error.svg"
		xml:space="preserve"
		viewBox="0 0 488.81088 443.71142"
		y="0px"
		x="0px"
		id="Capa_1"
		version="1.1"><metadata
   id="metadata41"><rdf:RDF><cc:Work
       rdf:about=""><dc:format>image/svg+xml</dc:format><dc:type
		rdf:resource="http://purl.org/dc/dcmitype/StillImage"/><dc:title></dc:title></cc:Work></rdf:RDF></metadata>
	<defs
			id="defs39"/>
	<sodipodi:namedview
			inkscape:current-layer="Capa_1"
			inkscape:window-maximized="1"
			inkscape:window-y="-9"
			inkscape:window-x="-9"
			inkscape:cy="221.85572"
			inkscape:cx="244.40578"
			inkscape:zoom="3.1802491"
			fit-margin-bottom="2.5"
			fit-margin-right="2.5"
			fit-margin-left="2.5"
			fit-margin-top="2.5"
			lock-margins="true"
			showgrid="false"
			id="namedview37"
			inkscape:window-height="1745"
			inkscape:window-width="2736"
			inkscape:pageshadow="2"
			inkscape:pageopacity="0"
			guidetolerance="10"
			gridtolerance="10"
			objecttolerance="10"
			borderopacity="1"
			bordercolor="#666666"
			pagecolor="#ffffff"/>
	<g
			transform="matrix(0.99588317,0,0,0.99588317,2.5002734,-20.049783)"
			style="fill:#dc3545;fill-opacity:1"
			id="g4">
	<path
			style="fill:#fd7e14;fill-opacity:1"
			id="path2"
			d="m 476.099,353.968 -170.2,-294.8 c -27.8,-48.7 -98.1,-48.7 -125.8,0 l -170.3,294.8 c -27.8,48.7 6.8,109.2 62.9,109.2 h 339.9 c 56.1,0 91.3,-61.1 63.5,-109.2 z m -233.2,43.8 c -14.8,0 -27.1,-12.3 -27.1,-27.1 0,-14.8 12.3,-27.1 27.1,-27.1 14.8,0 27.1,12.3 26.5,27.8 0.7,14.1 -12.3,26.4 -26.5,26.4 z m 24.7,-175.2 c -1.2,21 -2.5,41.9 -3.7,62.9 -0.6,6.8 -0.6,13 -0.6,19.7 -0.6,11.1 -9.3,19.7 -20.4,19.7 -11.1,0 -19.7,-8 -20.4,-19.1 -1.8,-32.7 -3.7,-64.8 -5.5,-97.5 -0.6,-8.6 -1.2,-17.3 -1.9,-25.9 0,-14.2 8,-25.9 21,-29.6 13,-3.1 25.9,3.1 31.5,15.4 1.9,4.3 2.5,8.6 2.5,13.6 -0.6,13.7 -1.9,27.3 -2.5,40.8 z"/>
</g>
	<g
			transform="translate(1.5002745,-21.049783)"
			id="g6">
</g>
	<g
			transform="translate(1.5002745,-21.049783)"
			id="g8">
</g>
	<g
			transform="translate(1.5002745,-21.049783)"
			id="g10">
</g>
	<g
			transform="translate(1.5002745,-21.049783)"
			id="g12">
</g>
	<g
			transform="translate(1.5002745,-21.049783)"
			id="g14">
</g>
	<g
			transform="translate(1.5002745,-21.049783)"
			id="g16">
</g>
	<g
			transform="translate(1.5002745,-21.049783)"
			id="g18">
</g>
	<g
			transform="translate(1.5002745,-21.049783)"
			id="g20">
</g>
	<g
			transform="translate(1.5002745,-21.049783)"
			id="g22">
</g>
	<g
			transform="translate(1.5002745,-21.049783)"
			id="g24">
</g>
	<g
			transform="translate(1.5002745,-21.049783)"
			id="g26">
</g>
	<g
			transform="translate(1.5002745,-21.049783)"
			id="g28">
</g>
	<g
			transform="translate(1.5002745,-21.049783)"
			id="g30">
</g>
	<g
			transform="translate(1.5002745,-21.049783)"
			id="g32">
</g>
	<g
			transform="translate(1.5002745,-21.049783)"
			id="g34">
</g>
</svg>
